<?xml version="1.0" encoding="UTF-8" standalone="no"?>
<!-- Created with Inkscape (http://www.inkscape.org/) -->

<svg
   xmlns:dc="http://purl.org/dc/elements/1.1/"
   xmlns:cc="http://creativecommons.org/ns#"
   xmlns:rdf="http://www.w3.org/1999/02/22-rdf-syntax-ns#"
   xmlns:svg="http://www.w3.org/2000/svg"
   xmlns="http://www.w3.org/2000/svg"
   xmlns:sodipodi="http://sodipodi.sourceforge.net/DTD/sodipodi-0.dtd"
   xmlns:inkscape="http://www.inkscape.org/namespaces/inkscape"
   width="279.49661mm"
   height="256.4119mm"
   viewBox="0 0 990.34233 908.54607"
   id="svg4278"
   version="1.1"
   inkscape:version="0.91 r13725"
   sodipodi:docname="aef-logo.svg">
  <defs
     id="defs4280" />
  <sodipodi:namedview
     id="base"
     pagecolor="#ffffff"
     bordercolor="#666666"
     borderopacity="1.0"
     inkscape:pageopacity="0.0"
     inkscape:pageshadow="2"
     inkscape:zoom="0.35"
     inkscape:cx="164.11457"
     inkscape:cy="678.93679"
     inkscape:document-units="px"
     inkscape:current-layer="layer1"
     showgrid="false"
     fit-margin-top="0"
     fit-margin-left="0"
     fit-margin-right="0"
     fit-margin-bottom="0"
     inkscape:window-width="1366"
     inkscape:window-height="705"
     inkscape:window-x="0"
     inkscape:window-y="30"
     inkscape:window-maximized="1" />
  <metadata
     id="metadata4283">
    <rdf:RDF>
      <cc:Work
         rdf:about="">
        <dc:format>image/svg+xml</dc:format>
        <dc:type
           rdf:resource="http://purl.org/dc/dcmitype/StillImage" />
        <dc:title></dc:title>
      </cc:Work>
    </rdf:RDF>
  </metadata>
  <g
     inkscape:label="Calque 1"
     inkscape:groupmode="layer"
     id="layer1"
     transform="translate(347.686,154.38997)">
    <g
       transform="translate(1830.2175,-1051.1262)"
       id="g4261">
      <path
         sodipodi:nodetypes="cscccccccscccccccccccccccccccccccccccccsscccccccccscscccccccsscssscscccscsscccccccssccccccccccscsssscccsssccssssccccccccsscccsscccssccscsscscsccccccccscccssccccccccccccccs"
         inkscape:connector-curvature="0"
         id="path4192"
         d="m -1504.7785,1242.7632 c -1.375,-0.3086 -9.2656,-2.2121 -17.5346,-4.23 l -15.0345,-3.669 -8.5023,0 -8.5022,0 -8.3382,3.4056 -8.3382,3.4055 -8.125,-0.1161 -8.125,-0.1162 -11.25,-3.983 c -6.1875,-2.1907 -14.2918,-4.4996 -18.0095,-5.1309 l -6.7594,-1.1479 -15.1156,2.4663 -15.1155,2.4663 -6.3125,2e-4 -6.3125,3e-4 -1.5,-1.5 -1.5,-1.5 0,-2.6361 0,-2.6361 1.6285,-2.2271 1.6285,-2.2271 9.934,-2.4174 9.934,-2.4175 28.2943,1.5032 28.2943,1.5032 10.4967,-1.5616 10.4968,-1.5617 6.1032,-3.3484 6.1032,-3.3484 1.3032,-2.1143 1.3032,-2.1144 -2.3287,-2.5731 -2.3287,-2.5732 -1.9937,-0.01 c -1.0966,0 -3.4625,-0.7741 -5.2577,-1.7108 l -3.2638,-1.7031 -8.6112,-0.8751 c -4.7361,-0.4815 -10.5799,-1.3828 -12.9861,-2.0031 -2.4063,-0.6202 -11.6875,-2.0062 -20.625,-3.0799 -8.9375,-1.0737 -21.6788,-2.4879 -28.3141,-3.1428 l -12.0641,-1.1907 -12.726,-3.217 -12.7259,-3.2171 -2.71,0.386 -2.7099,0.386 -3.125,6.25 -3.125,6.25 -7.5413,5.0561 -7.5412,5.0561 -6.8338,2.1375 c -3.7585,1.1756 -10.7712,2.6872 -15.5837,3.3591 -4.8125,0.6718 -11.8438,1.8546 -15.625,2.6284 l -6.875,1.4069 -50.625,-0.5879 -50.625,-0.5878 -2.1875,-0.9304 -2.1875,-0.9304 0,-2.1933 0,-2.1933 3.7256,-6.7355 c 2.0491,-3.7045 7.149,-13.4855 11.333,-21.7355 4.1841,-8.25 8.0773,-15.8437 8.6517,-16.875 0.5744,-1.0312 5.037,-8.7216 9.917,-17.0898 4.88,-8.3681 8.8727,-15.5227 8.8727,-15.8991 0,-0.3764 2.7282,-5.3423 6.0626,-11.0352 3.3345,-5.693 9.0297,-15.9759 12.6562,-22.8509 3.6264,-6.875 10.2752,-19.25 14.7751,-27.5 4.4999,-8.25 9.3103,-16.267 10.6896,-17.8155 l 2.508,-2.8155 3.2167,0.166 c 1.7693,0.091 6.0293,-0.5088 9.4668,-1.3337 3.4375,-0.8249 8.8567,-2.3045 12.0428,-3.288 3.186,-0.9836 6.9638,-1.7883 8.3951,-1.7883 1.4312,0 4.4495,-0.7842 6.7072,-1.7427 2.2577,-0.9585 9.7299,-3.8556 16.6049,-6.4381 6.875,-2.5824 14.9035,-6.0779 17.841,-7.7678 l 5.3411,-3.0724 1.2334,-2.3046 1.2334,-2.3047 -2.7477,-2.5598 -2.7476,-2.5604 -2.9715,0 c -1.6343,0 -4.2001,0.6437 -5.7018,1.4304 -1.5017,0.7867 -4.9018,3.3727 -7.5559,5.7465 l -4.8255,4.3161 -4.1968,1.7535 -4.1968,1.7535 -4.2293,0 -4.2292,0 -14.7979,3.763 -14.7979,3.763 -1.2153,-1.2153 -1.2154,-1.2154 6.0208,-11.6101 c 3.3115,-6.3856 7.2492,-13.5789 8.7505,-15.9852 1.5014,-2.4062 5.1583,-8.87504 8.1265,-14.37504 2.9682,-5.49996 7.6212,-14.21871 10.34,-19.37496 2.7188,-5.15625 9.9012,-18.375 15.9609,-29.375 6.0597,-11 14.0646,-25.625 17.7887,-32.5 l 6.771,-12.5 1.5382,0 1.5383,0 3.4431,6.25 c 1.8937,3.4375 6.9157,12.66793 11.1599,20.51205 4.2442,7.84414 7.7168,14.68789 7.7168,15.20834 0,0.52045 0.4683,1.13378 1.0406,1.36295 0.5724,0.22916 2.508,3.51041 4.3013,7.29166 1.7934,3.78125 5.4557,10.8125 8.1384,15.625 2.6827,4.8125 6.2992,11.28125 8.0367,14.375 1.7375,3.09375 5.4044,9.88572 8.1486,15.09326 2.7442,5.2075 5.9944,11.00214 7.2227,12.87674 l 2.2333,3.4084 -1.3983,1.3983 -1.3982,1.3983 -4.7251,-1.4478 c -2.5987,-0.7962 -9.6913,-2.5794 -15.7612,-3.9624 -6.0699,-1.3831 -12.5387,-2.5062 -14.375,-2.4956 -1.8363,0.01 -4.0551,0.4737 -4.9306,1.0293 l -1.5918,1.0103 -0.6549,3.0331 c -0.3602,1.6682 -0.9673,4.7634 -1.349,6.8781 l -0.694,3.845 2.0925,2.0925 2.0926,2.0925 6.7427,0 c 3.7085,0 13.0135,-0.8746 20.6778,-1.9436 l 13.935,-1.9436 3.7594,0.3811 3.7594,0.3811 5.5312,10 c 3.0422,5.5 6.9031,12.8125 8.5798,16.25 1.6767,3.4375 4.3897,8.6349 6.0287,11.5498 1.6391,2.9149 3.5441,6.0087 4.2332,6.875 0.6892,0.8664 4.7411,8.2753 9.0042,16.4643 4.263,8.1889 9.7426,18.0023 12.1767,21.8074 2.4341,3.8052 6.8002,11.7301 9.7024,17.611 2.9022,5.8809 8.2769,16.3175 11.9438,23.1925 3.6669,6.875 7.9237,14.511 9.4597,16.9688 1.5359,2.4578 5.3821,9.4891 8.5471,15.625 3.165,6.1359 6.2918,12 6.9485,13.0312 0.6567,1.0313 5.0503,8.9063 9.7636,17.5 4.7134,8.5938 8.9744,16.4688 9.4691,17.5 0.4946,1.0313 2.5353,4.9488 4.5349,8.7055 l 3.6355,6.8305 -1.3337,1.607 -1.3337,1.607 -2.6595,-0.145 c -1.4627,-0.08 -3.7844,-0.3975 -5.1594,-0.706 z m -178.0918,-114.8132 11.6182,-0.5612 2.9243,-1.9161 2.9243,-1.9161 0,-1.6449 c 0,-0.9047 -1.5469,-3.6427 -3.4375,-6.0845 l -3.4375,-4.4396 -5.0685,-3.2221 -5.0685,-3.2221 -7.0805,-0.8322 -7.0806,-0.8321 -3.9422,1.6329 -3.9422,1.6329 -1.7213,4.1195 -1.7212,4.1195 0,5.1224 0,5.1223 1.361,2.5431 1.361,2.5431 5.3466,-0.8018 c 2.9405,-0.4409 10.5746,-1.0543 16.9646,-1.363 z"
         style="fill:#da251d;fill-opacity:1" />
      <path
         sodipodi:nodetypes="ccsccssscccccsccsccccccccccccsccscccsssscccsccccccccccccccscsccscscccccccccsscccccccccccccccccccccsccccccssssscccccccccccccsscccssccccccccsccccccsscssscccssscccsccsccccccsscccccsssscccccccsccsccscscccscscccscccccccccccsccccsccccsssccccscscsccccscsccccssccssssccccccccccssscccccscccccscsscccsscsccccscscsccccccccccccccccccscccccccsccscccccccccsscccccscccsssccccccccsccsccccccccccsccccccccscsccccccscccc"
         inkscape:connector-curvature="0"
         id="path4192-6"
         d="m -2063.5388,1657.7031 -2.0238,-5.0582 1.9344,-9.2028 c 1.0639,-5.0616 2.5156,-11.2514 3.226,-13.7551 l 1.2915,-4.5522 1.8536,-1.5383 c 1.0195,-0.8461 1.8536,-2.1801 1.8536,-2.9645 0,-0.7844 1.9216,-4.2796 4.2703,-7.7672 2.3487,-3.4876 6.0619,-7.9801 8.2517,-9.9833 l 3.9813,-3.6423 1.7878,-4.1169 1.7879,-4.1168 2.148,-0.7403 c 1.1814,-0.4072 3.5542,-2.1015 5.273,-3.7652 1.7187,-1.6636 6.2187,-5.0327 10,-7.4867 3.7812,-2.454 8.5625,-5.0336 10.625,-5.7325 2.0625,-0.6988 4.6941,-2.0854 5.848,-3.0813 l 2.0981,-1.8108 5.2194,-1.1727 5.2194,-1.1728 4.2451,-3.2378 4.2451,-3.2379 -0.074,-2.6641 -0.074,-2.6642 -2.7813,-5.625 -2.7814,-5.625 -2.4574,0.1772 c -1.3516,0.098 -4.4262,0.883 -6.8324,1.7457 -2.4063,0.8627 -7.1956,2.8924 -10.643,4.5104 -3.4474,1.6179 -7.0593,2.9417 -8.0266,2.9417 -0.9672,0 -2.7484,0.8958 -3.9582,1.9907 -1.2098,1.0948 -4.0666,2.9935 -6.3484,4.2192 -2.2819,1.2257 -7.7612,4.0019 -12.1764,6.1693 l -8.0275,3.9407 -1.2096,-1.2095 -1.2095,-1.2095 3.2996,-3.9214 c 1.8147,-2.1567 3.2995,-4.6486 3.2995,-5.5376 0,-0.889 2.2694,-5.9504 5.0431,-11.2476 2.7737,-5.2972 7.3246,-13.3861 10.1131,-17.9753 2.7885,-4.5892 5.8728,-10.0315 6.854,-12.094 0.9813,-2.0625 2.5413,-5.1562 3.4667,-6.875 0.9254,-1.7187 2.9997,-5.8672 4.6095,-9.2189 1.6098,-3.3516 4.7734,-8.512 7.0301,-11.4676 l 4.1031,-5.3737 5.3277,0.1067 5.3277,0.1068 3.5457,-1.4618 3.5457,-1.4617 -1.0457,-5.3023 -1.0456,-5.3025 0.086,-9.486 0.086,-9.4861 2.9922,-4.8889 c 1.6456,-2.6889 3.7163,-5.6323 4.6014,-6.5408 l 1.6094,-1.6517 0,-2.2422 0,-2.2421 2.3258,-2.9811 c 1.2792,-1.6396 4.2125,-6.9186 6.5185,-11.7311 2.3059,-4.8125 5.7985,-11.1397 7.7614,-14.0606 l 3.5688,-5.3105 3.3503,-0.7761 c 1.8426,-0.4268 9.1611,-3.2736 16.2633,-6.3262 l 12.913,-5.5502 5.9862,-4.3007 c 3.2924,-2.3654 6.4816,-4.3093 7.0869,-4.3198 0.6053,-0.01 3.9133,-1.997 7.3508,-4.4144 3.4375,-2.4175 8.5,-5.8522 11.25,-7.6329 2.75,-1.7806 7.5126,-4.8735 10.5836,-6.8732 3.0711,-1.9996 9.1194,-5.3063 13.4409,-7.348 l 7.8571,-3.7124 5.3092,0.018 5.3092,0.018 3.125,1.7821 c 1.7187,0.9801 6.7625,3.5711 11.2084,5.7576 4.4458,2.1865 10.3521,4.8453 13.125,5.9083 l 5.0416,1.9327 26.8113,0.5444 26.8113,0.5443 9.4387,-2.0942 c 5.1913,-1.1519 14.2143,-3.8341 20.0511,-5.9606 l 10.6125,-3.8662 6.5394,-4.1833 6.5394,-4.1832 1.2812,-2.3938 1.281,-2.3938 -0.736,-1.918 -0.736,-1.918 -2.697,-0.8571 c -1.4834,-0.4713 -7.4783,-1.1981 -13.3219,-1.615 l -10.625,-0.7579 -6.2029,-4.1943 -6.2029,-4.1943 -7.1547,-2.2856 -7.1547,-2.2857 -11.9057,-1.3276 c -6.5482,-0.7301 -16.5685,-1.327 -22.2675,-1.3265 -5.6989,6e-4 -16.4672,0.58 -23.9295,1.2877 l -13.5678,1.2866 -4.3974,1.8373 -4.3973,1.8374 -3.2848,-0.01 c -1.8067,0 -6.0973,0.9098 -9.5348,2.0292 -3.4375,1.1195 -9.2532,3.0911 -12.9238,4.3812 -3.6705,1.2902 -7.5377,2.3458 -8.5937,2.3458 -1.0559,0 -5.3653,1.5018 -9.5762,3.3374 -4.211,1.8356 -8.2188,3.9857 -8.9063,4.7781 -0.6875,0.7924 -4.4844,3.5023 -8.4375,6.022 -3.9532,2.5198 -7.1875,5.0827 -7.1875,5.6953 l 0,1.1139 -4.0625,1.6512 -4.0625,1.6513 -1.6334,2.2504 -1.6335,2.2504 -1.6158,0 -1.6156,0 -0.1657,-8.9711 -0.1656,-8.971 2.7498,-5.5061 c 1.5125,-3.0283 3.9935,-6.7496 5.5134,-8.2696 l 2.7635,-2.7635 0.8602,-3.4277 c 0.4732,-1.8852 3.6139,-8.8197 6.9795,-15.4099 3.3656,-6.5902 7.5184,-13.6452 9.2286,-15.6776 l 3.1095,-3.6953 0,-1.9867 0,-1.9866 5.3986,-8.855 c 2.9692,-4.8702 6.4157,-11.2146 7.6589,-14.0988 l 2.2603,-5.2438 2.967,-2.7874 2.967,-2.7874 4.0616,0.032 c 2.2338,0.018 7.7178,0.538 12.1866,1.1563 4.4687,0.6182 11.2187,1.1068 15,1.0857 3.7812,-0.021 8.9035,-0.4532 11.3828,-0.9604 l 4.5078,-0.9221 6.1172,-4.0202 c 3.3644,-2.2111 9.4569,-6.6951 13.5387,-9.9644 l 7.4216,-5.9441 3.9903,-0.7485 3.9902,-0.7486 5.1208,3.2326 5.1208,3.2327 5.3424,1.2502 c 2.9384,0.6876 10.1237,2.1132 15.9675,3.1679 5.8437,1.0547 14,2.9957 18.125,4.3132 4.125,1.3176 12.2812,3.7851 18.125,5.4834 5.8437,1.6983 14.5625,3.9471 19.375,4.9972 4.8125,1.0501 11.5625,2.2996 15,2.7766 l 6.25,0.8673 30.625,-0.2318 30.625,-0.2317 13.7637,1.2319 c 7.5701,0.6776 16.5701,1.8828 20,2.6782 3.4299,0.7954 9.8925,2.2838 14.3613,3.3075 4.4687,1.0237 12.9062,3.2788 18.75,5.0114 5.8437,1.7327 12.3975,3.9343 14.5639,4.8927 2.1664,0.9583 4.4164,1.7327 5,1.7209 0.5836,-0.011 5.8423,1.4424 11.6861,3.2315 5.8437,1.7891 12.1718,3.7675 14.0625,4.3964 1.8906,0.629 4.9843,1.6576 6.875,2.286 1.8906,0.6283 6.8125,2.1067 10.9375,3.2854 4.125,1.1787 10.5887,3.1445 14.3638,4.3684 l 6.8639,2.2254 1.2611,2.0248 1.2612,2.0247 -1.686,1.052 -1.6859,1.052 -12.6891,1.5861 c -6.979,0.8724 -17.1277,1.9763 -22.5527,2.4531 l -9.8637,0.867 -1.6956,2.3188 -1.6956,2.3189 1.7086,2.578 1.7086,2.578 7.9757,2.9602 c 4.3866,1.6281 9.1007,3.3992 10.4757,3.9359 1.375,0.5367 6.1958,2.1577 10.713,3.6023 4.5172,1.4446 9.6872,2.6266 11.4888,2.6266 l 3.2755,0 0.6833,1.1055 0.6832,1.1055 8.453,1.5582 8.4531,1.5582 4.7986,2.8133 4.7987,2.8134 2.5866,4.2104 c 1.4227,2.3158 5.0942,9.273 8.1589,15.4605 3.0649,6.1875 5.9677,11.5312 6.451,11.875 0.4832,0.3437 2.192,3.4375 3.7974,6.875 1.6054,3.4375 3.6049,7.0937 4.4433,8.125 0.8384,1.0312 2.2016,3.9843 3.0294,6.5625 0.8277,2.5781 1.9117,4.6875 2.4089,4.6875 0.4972,0 2.1541,2.3906 3.682,5.3125 1.528,2.9218 4.3877,8.125 6.3551,11.5625 1.9674,3.4375 5.0088,9.1853 6.7588,12.7729 1.7499,3.5876 4.8797,8.9909 6.9551,12.0073 2.0753,3.0164 5.1791,8.5186 6.8973,12.2271 1.7181,3.7085 4.8863,9.8364 7.0403,13.6177 2.1539,3.7812 4.7909,8.2376 5.8599,9.903 1.0691,1.6654 4.9241,8.9779 8.5668,16.25 l 6.623,13.222 -1.6871,1.7243 -1.687,1.7244 -9.7935,1.7501 c -5.3865,0.9626 -12.0435,1.7961 -14.7935,1.8524 l -5,0.1022 -2.1057,1.1109 c -1.1581,0.6111 -9.132,2.5339 -17.7199,4.2731 -8.5879,1.7391 -19.1716,3.6746 -23.5194,4.301 -4.3478,0.6265 -10.9988,1.7443 -14.78,2.4841 -3.7813,0.7397 -10.25,1.955 -14.375,2.7006 -4.125,0.7455 -12,1.6618 -17.5,2.0362 l -10,0.6806 -0.6587,1.0026 -0.6586,1.0025 -11.8414,1.373 c -6.5127,0.7552 -18.0288,2.2039 -25.5913,3.2194 l -13.75,1.8462 -22.7383,1.0542 -22.7382,1.0542 -13.5118,-1.5781 c -7.4314,-0.8679 -15.1803,-2.0094 -17.2196,-2.5368 l -3.7078,-0.9588 -8.6959,-6.6716 -8.6958,-6.6717 -2.1283,0 c -1.1705,0 -5.3492,1.4245 -9.2859,3.1655 -3.9367,1.741 -10.0536,3.7406 -13.5931,4.4435 -3.5394,0.7029 -8.4041,2.0796 -10.8103,3.0593 -2.4063,0.9796 -10,2.9653 -16.875,4.4125 -6.875,1.4473 -14.75,3.0966 -17.5,3.665 -2.75,0.5685 -10.0625,2.2269 -16.25,3.6853 -6.1875,1.4585 -14.3438,3.4266 -18.125,4.3736 -3.7813,0.947 -10.8125,2.5674 -15.625,3.6008 -4.8125,1.0335 -13.25,2.8367 -18.75,4.0072 -5.5,1.1705 -12.5313,2.9384 -15.625,3.9287 -3.0938,0.9902 -7.8529,2.3605 -10.5758,3.045 -2.723,0.6845 -5.6426,1.8186 -6.488,2.5203 l -1.5372,1.2756 -2.262,-0.2865 -2.262,-0.2866 -3.125,1.4027 c -1.7188,0.7715 -4.0175,2.125 -5.1084,3.0079 -1.0908,0.8829 -2.6821,2.9169 -3.5363,4.5202 l -1.553,2.9149 2.2863,1.7339 c 1.2575,0.9536 4.2551,2.4526 6.6614,3.3309 l 4.375,1.5971 15.625,-0.1801 c 8.5937,-0.099 20.9687,-0.3648 27.5,-0.5907 l 11.875,-0.4108 0.6897,-0.953 c 0.3793,-0.5242 3.7374,-1.531 7.4623,-2.2374 3.725,-0.7064 9.0396,-1.3547 11.8103,-1.4407 2.7707,-0.086 5.9203,-0.6049 6.999,-1.1532 1.0787,-0.5483 8.11,-1.6525 15.625,-2.4538 l 13.6637,-1.457 1.2983,-1.0539 c 0.7141,-0.5796 5.0711,-1.6566 9.6822,-2.3932 l 8.3839,-1.3394 6.3051,0.2232 6.3051,0.2231 0.6293,1.0181 0.6292,1.0181 5.5709,-0.6552 5.571,-0.6552 0,0.7764 c 0,0.427 -0.7032,1.4708 -1.5625,2.3195 -0.8594,0.8488 -2.5682,1.9241 -3.7974,2.3897 l -2.2348,0.8465 -0.7114,-1.854 -0.7114,-1.8539 -1.7805,0 -1.7805,0 -0.8071,2.1875 c -0.4439,1.2031 -1.4106,2.6008 -2.1483,3.1059 l -1.3411,0.9183 -10.625,0.046 c -5.8438,0.025 -18.602,0.561 -28.3517,1.1904 l -17.7266,1.1446 -6.0234,1.9822 c -3.3128,1.0902 -7.1483,2.5083 -8.5233,3.1515 -1.375,0.6431 -7.8438,3.1264 -14.375,5.5183 -6.5313,2.392 -14.6875,5.3032 -18.125,6.4694 l -6.25,2.1204 -31.25,0.243 -31.25,0.243 -10.934,3.2639 c -6.0137,1.7951 -11.5468,3.6426 -12.2958,4.1055 -0.749,0.4629 -6.235,2.1239 -12.191,3.6911 -5.9561,1.5671 -16.173,4.3051 -22.7042,6.0842 l -11.875,3.2348 -13.3058,0.025 -13.3059,0.025 -7.9441,2.4548 c -4.3693,1.3501 -11.6005,4.232 -16.0692,6.4042 -4.4688,2.1723 -10.351,4.7401 -13.0716,5.7063 -2.7207,0.9661 -7.502,3.3626 -10.6251,5.3254 l -5.6784,3.5688 -6.5478,2.1158 c -3.6013,1.1637 -6.8689,2.6353 -7.2613,3.2703 l -0.7134,1.1542 -8.0513,0 -8.0512,0 c -15.4848,4.0456 -29.357,7.583 -35.6347,5.3438 z m 293.9687,-69.9222 -0.8333,-0.8333 -0.8334,0.8333 -0.8333,0.8333 1.6667,0 1.6666,0 z m 139.1667,-109.8153 c 5.1562,-0.3307 12.4687,-1.2282 16.25,-1.9947 l 6.875,-1.3935 6.3601,0.1529 6.3602,0.1529 1.9805,-2.197 c 1.0894,-1.2083 2.8259,-4.6566 3.859,-7.6628 l 1.8784,-5.4659 -2.0135,-4.2224 -2.0135,-4.2223 -5.1628,-2.4993 -5.1628,-2.4993 -5.4547,0 -5.4547,0 -8.2131,2.5938 c -4.5172,1.4266 -11.2997,4.0172 -15.0721,5.7569 l -6.859,3.163 -5.9867,5.0123 c -3.2927,2.7568 -6.5917,6.1428 -7.3311,7.5245 l -1.3444,2.512 1.5584,2.9119 1.5584,2.912 2.0066,0.5974 c 1.1036,0.3286 4.2567,0.3435 7.0067,0.033 2.75,-0.3104 9.2187,-0.8349 14.375,-1.1655 z m -55,-89.4797 c 8.5937,-0.6461 17.3125,-1.442 19.375,-1.7687 2.0625,-0.3267 6.8321,-1.145 10.5992,-1.8185 l 6.8492,-1.2245 3.1508,-2.3958 3.1508,-2.3959 -0.3473,-4.1053 -0.3473,-4.1054 -2.4905,-4.0297 c -1.3698,-2.2164 -3.3026,-4.3414 -4.2951,-4.7223 l -1.8046,-0.6925 -7.2326,1.2868 c -3.978,0.7078 -10.0451,2.0499 -13.4826,2.9825 -3.4375,0.9326 -9.3438,2.5383 -13.125,3.5681 -3.7813,1.0298 -10.25,3.3052 -14.375,5.0563 -4.125,1.7511 -8.4512,3.1972 -9.6138,3.2136 l -2.1137,0.03 -0.7725,1.25 -0.7726,1.25 -3.2162,0 -3.2163,0 -4.21,2.6019 -4.21,2.602 0,1.5647 c 0,0.8606 0.375,1.9397 0.8333,2.398 l 0.8333,0.8334 12.6042,-0.1019 c 6.9323,-0.056 19.6354,-0.6305 28.2292,-1.2765 z m 183.125,-4.8687 c 2.75,-1.2031 7.25,-2.5697 10,-3.0369 2.75,-0.4671 5.9843,-1.1385 7.1875,-1.492 l 2.1875,-0.6425 0,-1.7468 0,-1.7468 -2.7864,-1.4912 c -1.5325,-0.8202 -4.7669,-1.7588 -7.1875,-2.0859 -2.4206,-0.327 -22.9636,-0.7682 -45.6511,-0.9804 l -41.25,-0.3858 -8.125,-3.2467 -8.125,-3.2466 -5.3152,-0.746 -5.3152,-0.7459 -6.9118,2.174 -6.9118,2.174 -1.8355,1.8356 c -1.0096,1.0095 -1.8355,2.541 -1.8355,3.4033 l 0,1.5678 2.8125,2.6347 c 1.5468,1.449 4.3959,3.2346 6.3313,3.9679 l 3.5189,1.3332 5.6258,0 5.6258,0 2.7303,1.5059 2.7304,1.5059 23.125,0.8029 c 12.7187,0.4416 32.4062,0.8193 43.75,0.8393 l 20.625,0.036 5,-2.1874 z"
         style="fill:#f8c300;fill-opacity:1" />
      <path
         sodipodi:nodetypes="csscsccccscccccccsccccsscccssccccccccccccsscscssscssccccccccscscscccsscscsscccccccccsccsccccsscccscccccccccsscscsccccsscsscsccccssssscsscsccsscccsccccscsscssccccccccccccccccccc"
         inkscape:connector-curvature="0"
         id="path4192-7"
         d="m -2176.6534,1805.0725 c -0.6876,-0.2291 -1.2501,-0.9677 -1.2501,-1.6412 0,-0.6734 1.5177,-4.4234 3.3727,-8.3333 1.855,-3.9098 4.0336,-7.9525 4.8413,-8.9838 0.8077,-1.0312 4.0921,-6.9375 7.2986,-13.125 l 5.8299,-11.25 2.7662,-2.3419 2.7663,-2.3418 11.25,0.7773 c 6.1875,0.4276 23.122,1.1371 37.6322,1.5767 l 26.3823,0.7993 0.9654,-1.562 0.9654,-1.5621 -1.7227,-1.0911 c -0.9474,-0.6001 -3.1289,-1.095 -4.8476,-1.0998 -1.7188,0 -6.7813,-0.8306 -11.25,-1.8352 -4.4688,-1.0045 -13.4688,-2.7334 -20,-3.8418 -6.5313,-1.1085 -16.0367,-2.6819 -21.1233,-3.4965 l -9.2482,-1.4811 -1.3704,-2.1875 -1.3703,-2.1875 1.5047,-2.1875 c 0.8276,-1.2031 4.4223,-7.8125 7.9883,-14.6875 3.566,-6.875 10.2747,-19.0259 14.9083,-27.002 4.6335,-7.9761 8.7953,-15.6697 9.2483,-17.097 l 0.8236,-2.5951 8.0184,-2.5904 c 4.4101,-1.4248 9.4535,-2.5905 11.2077,-2.5905 1.7541,0 8.3865,-1.1533 14.7386,-2.5629 l 11.5493,-2.563 1.6318,-1.6135 1.6318,-1.6135 c 13.4417,-4.0716 33.6109,-8.2516 33.6109,-8.2516 l 6.9978,0.7222 6.9979,0.7223 3.0835,-1.1724 3.0835,-1.1724 8.0625,0 8.0625,0 7.1687,-1.7906 c 3.9427,-0.9849 10.8248,-2.4574 15.2936,-3.2722 4.4687,-0.8149 12.9062,-2.2073 18.75,-3.0944 5.8437,-0.8871 14.2812,-2.2622 18.75,-3.0559 4.4687,-0.7937 12.9062,-2.2213 18.75,-3.1723 5.8437,-0.9511 13.4375,-2.0493 16.875,-2.4404 3.4375,-0.3911 12.1562,-1.517 19.375,-2.502 7.2187,-0.9849 20.7187,-2.6777 30,-3.7617 9.2812,-1.084 24.75,-2.5575 34.375,-3.2746 9.625,-0.7171 28.6968,-1.6209 42.3819,-2.0086 l 24.8819,-0.7049 8.8681,1.5322 c 4.8774,0.8427 11.9609,2.1103 15.7411,2.8169 l 6.873,1.2847 6.2695,2.7727 6.2696,2.7727 5.806,6.4577 5.806,6.4577 3.7976,0.7595 3.7975,0.7595 4.2764,-2.643 c 2.3521,-1.4536 5.1754,-2.643 6.274,-2.643 1.0987,0 3.8448,-0.7915 6.1025,-1.759 2.2577,-0.9674 7.4799,-2.6439 11.6049,-3.7255 4.125,-1.0816 12.2812,-3.0686 18.125,-4.4156 5.8437,-1.3469 14.8437,-3.3519 20,-4.4555 5.1562,-1.1036 12.75,-2.7858 16.875,-3.7381 4.125,-0.9524 13.125,-2.8939 20,-4.3144 6.875,-1.4206 16.7187,-3.471 21.875,-4.5565 5.1562,-1.0854 12.75,-2.7534 16.875,-3.7066 4.125,-0.9532 12.5625,-2.9068 18.75,-4.3413 6.1875,-1.4345 14.625,-3.3763 18.75,-4.315 4.125,-0.9388 12.8437,-2.9233 19.375,-4.4099 6.5312,-1.4866 16.0937,-3.7533 21.25,-5.037 5.1562,-1.2838 13.0863,-3.4267 17.6223,-4.7622 4.536,-1.3355 10.8708,-3.5886 14.0773,-5.007 l 5.8299,-2.5789 0.7618,-1.9853 0.7619,-1.9853 -2.127,-2.3503 -2.127,-2.3503 -9.5871,-2.1716 -9.5871,-2.1715 -9.375,-0.023 c -5.1563,-0.013 -15.8438,0.6657 -23.75,1.507 -7.9063,0.8414 -18.0313,2.1191 -22.5,2.8393 -4.4688,0.7202 -12.625,1.813 -18.125,2.4283 -5.5,0.6154 -11.6849,1.7038 -13.7441,2.4188 -2.0593,0.7149 -7.9655,1.6473 -13.125,2.072 l -9.3809,0.7721 -4.8447,1.686 -4.8446,1.686 -5.1554,0.03 c -2.8354,0.016 -7.4053,0.58 -10.1553,1.2525 -2.75,0.6725 -16.25,2.6777 -30,4.4561 l -25,3.2335 -7.5,-0.5875 -7.5,-0.5876 -4.0429,-2.3359 c -2.2237,-1.2848 -4.331,-3.0798 -4.6831,-3.989 l -0.6401,-1.653 1.2826,-2.3965 1.2826,-2.3965 3.6509,-1.888 3.6508,-1.8879 4.1246,-0.03 c 2.2685,-0.016 6.3746,-0.57 9.1246,-1.2301 l 5,-1.2003 28.125,-1.2652 c 15.4687,-0.6958 33.75,-1.8979 40.625,-2.6712 l 12.5,-1.406 5.625,-1.9033 c 3.0937,-1.0468 7.3125,-2.3376 9.375,-2.8684 2.0625,-0.5309 9.375,-3.0435 16.25,-5.5836 6.875,-2.5401 15.3125,-5.3747 18.75,-6.2991 3.4375,-0.9245 10.1875,-2.8693 15,-4.3219 4.8125,-1.4525 11.8437,-3.217 15.625,-3.921 l 6.875,-1.2799 11.875,0.7726 c 6.5312,0.4249 15.5267,1.4018 19.9899,2.1709 l 8.1149,1.3983 11.8851,-1.5065 c 6.5368,-0.8286 17.2288,-2.6634 23.7601,-4.0773 6.5312,-1.4139 13.6475,-3.3486 15.8139,-4.2994 2.1664,-0.9509 5.0987,-1.7288 6.5162,-1.7288 1.4175,0 5.5353,-1.1659 9.1506,-2.5909 l 6.5732,-2.591 6.7394,-0.2215 6.7393,-0.2216 1.1147,1.875 c 0.6131,1.0313 5.612,9.8897 11.1087,19.6854 5.4967,9.7957 9.994,18.025 9.994,18.2874 0,0.2624 5.0625,9.5813 11.25,20.7086 6.1875,11.1274 11.25,20.4077 11.25,20.623 0,0.2152 2.4457,4.8192 5.435,10.231 2.9892,5.4118 7.4209,13.4958 9.8482,17.9646 2.4272,4.4687 8.2155,15.1562 12.8628,23.75 4.6472,8.5937 9.3855,17.0312 10.5294,18.75 1.1438,1.7187 5.3491,9.5937 9.3451,17.5 3.9959,7.9062 7.9649,15.2187 8.8199,16.25 0.8551,1.0312 3.4378,5.5312 5.7393,10 2.3016,4.4687 8.1006,15.1562 12.8868,23.75 4.7862,8.5937 12.0149,21.8125 16.0637,29.375 4.0489,7.5625 8.5318,16.2555 9.9622,19.3178 l 2.6005,5.5679 -1.161,0.387 c -0.6386,0.2128 -222.9033,0.5198 -493.9214,0.6821 -271.0182,0.1623 -493.3228,0.1076 -494.0104,-0.1215 z m 462.7307,-57.1153 9.1442,-1.907 9.0712,-3.7578 c 4.9892,-2.0668 11.4579,-5.0335 14.375,-6.5928 2.9171,-1.5592 6.9913,-3.8917 9.0538,-5.1832 2.0625,-1.2915 5.8594,-4.3308 8.4375,-6.7539 l 4.6875,-4.4056 0,-1.9964 c 0,-1.0979 -0.675,-2.6713 -1.5,-3.4963 l -1.5,-1.5 -9.4375,0 -9.4375,0 -12.8568,2.4963 -12.8569,2.4962 -18.3931,0.019 -18.3932,0.019 -1.613,1.0233 -1.613,1.0234 -1.297,8.3308 -1.297,8.3308 1.4,4.2422 1.4001,4.2422 5.8849,2.5333 5.885,2.5333 5.8558,0.1012 5.8557,0.1011 9.1443,-1.907 z"
         style="fill:#007cc3;fill-opacity:1" />
    </g>
  </g>
</svg>
